<svg xmlns="http://www.w3.org/2000/svg" width="196" height="27" viewBox="0 0 196 27" fill="none"><path d="M146.085 25.7644L140.024 15.1306C142.709 13.845 144.418 11.1343 144.421 8.15763C144.421 3.8788 140.939 0.397459 136.66 0.397459H123.696V25.7635H129.461V15.9178H134.05L139.661 25.7644H146.085ZM129.367 11.0211V5.30638H135.58L135.556 5.31614C137.447 5.41766 138.652 6.51384 138.652 8.16935C138.652 9.80679 137.361 10.9542 135.437 11.0225H129.367V11.0211ZM100.153 25.7644V0.397459H119.106V5.23756H106.074V10.3124H117.5V15.2604H106.074V20.6715H119.751V25.7644H100.153ZM73.1215 25.7644L67.0603 15.1306C69.7446 13.845 71.4543 11.1338 71.4567 8.15763C71.4567 3.8788 67.9754 0.397459 63.6966 0.397459H50.7322V25.7635H56.4977V15.9178H61.0874L66.6981 25.7644H73.1215ZM56.4015 11.0211V5.30638H62.6155L62.5911 5.31614C64.4823 5.41766 65.6883 6.51384 65.6883 8.16935C65.6883 9.80679 64.3969 10.9542 62.472 11.0225H56.4015V11.0211ZM35.369 26.3896C42.3048 26.3896 46.447 22.4017 46.447 15.7231V0.41601H40.5268V15.3272C40.5268 18.9384 38.6468 21.0097 35.3695 21.0097H35.3661C32.0888 21.0097 30.2097 18.9389 30.2097 15.3272V0.41601H24.2871V15.724C24.2871 22.4022 28.4293 26.3901 35.3661 26.3901H35.369V26.3896ZM16.544 11.7151C19.9604 12.8801 21.6257 15.7865 21.6257 18.589C21.6257 22.5374 18.4196 25.7517 14.4746 25.7644H0.470703V0.395508H13.3687C16.7261 0.426744 19.4328 3.15549 19.4368 6.51335C19.4411 8.63154 18.3459 10.6004 16.544 11.7141V11.7151V11.7151ZM6.28253 21.0312H12.7552C14.7899 21.0312 15.8544 19.5138 15.8544 18.0135C15.8544 16.8051 14.8934 15.1037 12.7552 15.1037H6.28253V21.0312ZM11.0221 10.372C12.5126 10.372 13.682 9.22063 13.682 7.75059C13.682 6.32936 12.4619 5.12921 11.0211 5.12921H6.28253V10.372H11.0221V10.372Z" fill="black"></path><path d="M91.8928 11.7097C95.3092 12.8738 96.9745 15.7811 96.9745 18.5836C96.9745 22.5325 93.7684 25.7454 89.8234 25.7591L75.8199 25.7581V0.390133L88.716 0.389648C92.0743 0.421372 94.7811 3.15061 94.785 6.50895C94.7889 8.62714 93.6942 10.5955 91.8923 11.7088L91.8928 11.7097ZM81.6313 21.0258H88.1035C90.1382 21.0258 91.2026 19.5085 91.2026 18.0082C91.2026 16.8002 90.2407 15.0983 88.1035 15.0983H81.6313V21.0258ZM86.3694 10.3666C87.8619 10.3666 89.0313 9.21525 89.0313 7.74522C89.0313 6.32398 87.8111 5.12384 86.3694 5.12384H81.6313V10.3666H86.3694V10.3666Z" fill="black"></path><path d="M171.173 25.7642L165.112 15.1303C167.796 13.8448 169.505 11.1336 169.508 8.15739C169.508 3.87856 166.027 0.397217 161.748 0.397217H148.784V25.7632H154.55V15.9176H159.139L164.749 25.7642H171.173H171.173ZM154.453 11.0208V5.30613H160.667L160.642 5.3159C162.534 5.41741 163.74 6.5136 163.74 8.1691C163.74 9.80655 162.449 10.954 160.523 11.0223H154.453V11.0208ZM179.597 25.7642V15.4275L169.533 0.397217H176.926L182.719 9.11838L188.537 0.397217H195.929L185.842 15.4275V25.7642H179.597Z" fill="black"></path></svg>