<svg xmlns="http://www.w3.org/2000/svg" width="82" height="32" viewBox="0 0 82 32" fill="none"><path fill-rule="evenodd" clip-rule="evenodd" d="M3.55971 0.759492L2.02518 0.680192L1.39266 0.553694L1.26616 0.316264C1.26616 0.0948995 1.42429 0 1.74098 0H17.609C25.0446 0 30.2651 2.26237 33.3029 6.80266C35.0432 9.42876 35.913 12.5456 35.913 16.1529C35.913 18.0355 35.6284 19.8546 35.0429 21.6106C34.3785 23.4618 33.4609 25.0916 32.2744 26.5473C30.9769 28.0812 29.3952 29.2684 27.5756 30.1385C25.6295 31.0244 23.4464 31.483 20.9943 31.483H0.759709C0.427419 31.483 0.269287 31.3721 0.269287 31.183C0.269287 30.9769 0.506698 30.8667 0.949463 30.8667L4.8256 30.6295C5.42692 30.55 5.85412 30.3757 6.05988 30.1388L6.45545 29.5847C6.59798 29.2056 6.67724 28.6364 6.69284 27.8607V2.7688C6.69284 1.78798 6.13918 1.18665 5.06346 0.949223L3.55971 0.759492ZM12.1031 1.18666L11.9922 1.81961V29.6796C11.9922 29.9959 12.0554 30.2167 12.1819 30.2965L12.8149 30.3914H14.9031L19.744 30.2173C21.0411 30.075 22.1484 29.8693 23.0188 29.5844C23.8842 29.2687 24.6954 28.8204 25.4233 28.2559C26.0562 27.7338 26.7048 26.9899 27.417 26.0409C28.6032 24.4907 29.4575 22.5129 29.9796 20.0925C30.2959 18.5111 30.4544 16.9763 30.4544 15.5052C30.4544 14.2078 30.2647 12.8155 29.8691 11.3127C29.3154 9.14517 28.4767 7.24672 27.2901 5.63291C24.9961 2.50064 21.2309 0.950091 16.026 0.950091H12.8144C12.4509 0.91759 12.2136 0.996891 12.1031 1.18666ZM39.0296 31.2458C38.9978 31.0554 39.1558 30.9766 39.5042 30.9766L40.6116 30.9445C41.2128 30.8657 41.5769 30.6603 41.7189 30.3436L41.9246 29.2049V20.013C41.9246 19.6649 41.7977 19.396 41.5609 19.2377L40.7382 19.1582L39.6308 19.4591L39.0296 19.4271C38.9501 19.2373 39.1876 19.0633 39.7411 18.905C41.0545 18.5572 42.2099 18.114 43.1903 17.5601C43.7912 17.2124 44.2181 17.0223 44.4078 16.9435L44.8828 16.8961C45.0408 16.9275 45.1207 17.2441 45.1207 17.8133V29.3936C45.1207 29.9468 45.2466 30.3429 45.4844 30.5798C45.7687 30.865 46.4338 31.007 47.4619 31.007C47.8257 31.007 48.0151 31.0868 48.0475 31.2599C48.0475 31.4028 47.9366 31.4503 47.7465 31.4503H39.3142C39.1244 31.4516 39.0296 31.3718 39.0296 31.2458ZM76.3655 19.8546C75.5905 20.6616 75.0685 21.6106 74.7832 22.7497V29.4738C74.7832 30.0747 74.9889 30.5019 75.4162 30.7708L76.3819 30.9442L77.394 31.0551C77.6318 31.0872 77.7267 31.1349 77.7267 31.2609L77.6796 31.3718L77.4104 31.4516H68.9463C68.6934 31.4516 68.5511 31.3718 68.5511 31.2458L68.7883 31.0554L70.2123 30.9445C70.7654 30.8497 71.1142 30.6603 71.3039 30.3753L71.5417 29.6635V20.1713L71.3827 19.4752L71.1148 19.3172C71.035 19.2383 70.9091 19.1909 70.7187 19.1588C70.4818 19.1438 70.1966 19.1909 69.8963 19.3172L69.0903 19.539L68.6306 19.4281C68.5518 19.3172 68.5832 19.2383 68.6938 19.1909L69.3738 18.906C70.9241 18.447 72.174 17.9727 73.0449 17.4826L74.1201 16.8971L74.5948 16.9282L74.7845 17.3243V20.8043C75.9717 18.8742 76.9203 17.6881 77.5694 17.2923C77.9645 17.0551 78.3446 16.865 78.6296 16.7862L79.1827 16.7388C79.5308 16.7067 79.9266 16.8176 80.3689 17.1029C80.9708 17.4506 81.2872 17.9727 81.3182 18.6367C81.3503 19.1909 81.1913 19.6185 80.8432 19.9502C80.5272 20.2191 80.2106 20.2989 79.9263 20.2191C79.6571 20.172 79.4513 20.0611 79.3093 19.9027L78.8661 19.3496C78.5183 18.8425 78.186 18.6845 77.7908 18.8275C77.3302 18.9527 76.8562 19.3015 76.3655 19.8546ZM43.3012 6.85029C42.7153 6.85029 42.241 7.05609 41.8458 7.45165C41.4186 7.84712 41.2128 8.35318 41.2442 8.93907C41.2128 9.49257 41.4182 9.96756 41.8458 10.3631C42.241 10.7586 42.716 10.964 43.3012 10.964C43.8543 10.964 44.345 10.7582 44.7402 10.3631C45.1354 9.96756 45.3572 9.4929 45.3572 8.93907C45.3572 8.35318 45.1354 7.84712 44.7402 7.45165C44.345 7.05609 43.8543 6.85029 43.3012 6.85029ZM51.6858 19.4748C52.2553 18.7156 52.9678 18.0829 53.8216 17.5768C54.5815 17.1336 55.3408 16.849 56.1318 16.706L59.0586 16.5327C60.1178 16.5798 61.0995 16.7855 61.9857 17.1807C64.1215 18.13 65.4657 19.8707 65.9717 22.4016C66.4938 24.9647 66.0515 27.1325 64.6586 28.8886C63.4725 30.3753 61.9059 31.3247 59.9287 31.7355C57.8564 32.1945 55.9263 32.0519 54.1857 31.3407C51.9229 30.4224 50.5474 28.6033 50.1038 25.9454C49.7083 23.4304 50.2304 21.2943 51.6858 19.4748ZM60.9562 18.7633C59.9915 17.6881 58.7733 17.2134 57.3015 17.3393C55.8782 17.4823 54.7866 18.2726 54.0744 19.7755C53.4261 21.1363 53.1882 22.7981 53.4261 24.7592C53.5994 26.7053 54.2174 28.2556 55.2132 29.4421C56.2734 30.692 57.4759 31.2141 58.8204 30.9769C60.2283 30.708 61.2572 29.9481 61.9376 28.6831C62.6016 27.3861 62.8385 25.7089 62.6805 23.5731C62.4911 21.4373 61.9379 19.8546 60.9562 18.7633ZM38.9183 19.4595V19.6178L38.5703 19.396V19.4748L38.6017 19.6178H38.5542V19.3165H38.5703L38.8866 19.5543V19.3165H38.9497L38.9183 19.4595Z" fill="black"></path></svg>