<svg xmlns="http://www.w3.org/2000/svg" width="248" height="25" viewBox="0 0 248 25" fill="none"><path d="M242.19 0.695801L234.92 10.1141H234.672L227.402 0.695801H221.743L232.565 13.9971V23.7458H237.027V13.9971L247.891 0.695801H242.19Z" fill="black"></path><path d="M208.813 10.1141H195.884V0.695801H191.422V23.7458H195.884V14.121H208.813V23.7458H213.316V0.695801H208.813V10.1141Z" fill="black"></path><path d="M140.531 16.7234H140.407L125.908 0.695801H122.025V23.7458H126.155V7.6356H126.238L140.903 23.7458H144.703V0.695801H140.531V16.7234Z" fill="black"></path><path d="M89.6389 23.7458H108.971V19.7389H94.1415V14.121H104.758V10.1141H94.1415V4.62009H108.971V0.695801H89.6389V23.7458Z" fill="black"></path><path d="M66.0934 18.004H65.9695L58.8231 0.695801H53.6183L64.1519 23.7458H67.8696L78.4032 0.695801H73.2397L66.0934 18.004Z" fill="black"></path><path d="M42.3824 0.695801H37.9211V23.7458H42.3824V0.695801Z" fill="black"></path><path d="M11.8968 15.1948H19.5801V19.2017C18.5061 19.5735 16.6059 20.0279 13.5078 20.0279C8.05511 20.0279 4.9983 17.3842 4.9983 12.1793C4.9983 7.01581 8.05511 4.33078 13.5078 4.33078C19.0844 4.33078 21.9347 5.9831 23.5044 7.26365V2.63714C21.7281 1.23266 17.8039 0.199951 13.5078 0.199951C7.14633 0.199951 0 2.71976 0 12.1793C0 21.6389 7.14633 24.1587 13.5078 24.1587C17.3908 24.1587 21.439 23.2913 23.9588 21.7629V11.1879H11.8968V15.1948Z" fill="black"></path><path d="M160.483 12.2206C160.483 17.3841 163.539 20.0692 168.992 20.0692C174.569 20.0692 177.419 18.4169 178.989 17.1363V21.7628C177.212 23.1673 173.288 24.2 168.992 24.2C162.631 24.2 155.484 21.6802 155.484 12.2206C155.484 2.76101 162.631 0.241211 168.992 0.241211C173.247 0.241211 177.212 1.27393 178.989 2.67841V7.30493C177.419 6.02437 174.569 4.37204 168.992 4.37204C163.539 4.37204 160.483 7.01576 160.483 12.2206Z" fill="black"></path></svg>