<svg xmlns="http://www.w3.org/2000/svg" width="167" height="30" viewBox="0 0 167 30" fill="none"><g clip-path="url(#clip0)"><path d="M90.4407 27.9814H111.837V25.3679H94.1087V17.0051H107.425V14.3607H94.1087V6.65598H111.837V4.052H90.4407V27.9814Z" fill="black"></path><path d="M101.56 0.183838L98.663 3.43818L107.757 0.183838H101.56Z" fill="black"></path><path d="M147.756 25.3679V4.052H144.412V27.9814H166.042V25.3679H147.756Z" fill="black"></path><path d="M125.701 4.052L113.534 27.9814H117.647L120.759 21.7878H135.352L138.492 27.9814H142.562L130.385 4.052H125.701ZM122.3 18.7884L128.033 7.35858L133.834 18.7884H122.3Z" fill="black"></path><path d="M78.8304 17.9753C84.3125 16.5125 84.8452 12.4335 84.8174 10.9752C84.4901 6.70033 81.6099 4.052 76.4345 4.052H61.3524V27.9814H64.7906V17.9434H74.6094L81.8329 27.9814H86.1664C86.1662 27.9814 80.968 21.2257 78.8304 17.9753ZM75.9651 15.116H64.7906V6.88437H76.3545C79.0169 6.88437 80.5145 8.12729 81.054 9.70617C81.4109 10.7885 81.1821 12.2092 80.5916 13.1765C79.6252 14.7757 77.7893 15.116 75.9651 15.116Z" fill="black"></path><path d="M40.6906 0C30.9851 0 24.3701 6.84299 24.3701 15.1254C24.3701 23.8447 31.6774 30 40.6906 30C49.6977 30 57.0021 23.9326 57.0021 15.1254C57.0021 6.84299 50.3052 0 40.6906 0ZM40.5741 27.0296C33.8594 27.0296 28.3269 21.6337 28.3269 15.1335C28.3269 8.64219 33.5982 2.98781 40.8344 2.98781C47.8913 2.98781 53.0787 8.64219 53.0787 15.1335C53.0787 21.6335 47.2859 27.0296 40.5741 27.0296Z" fill="black"></path><path d="M15.7109 12.5174H18.1918L22.6949 4.052H19.0712L15.7109 12.5174Z" fill="black"></path><path d="M3.58267 25.3679V4.052H0.236511V27.9814H21.8656V25.3679H3.58267Z" fill="black"></path></g><defs><clipPath id="clip0"><rect width="165.805" height="30" fill="white" transform="translate(0.236511)"></rect></clipPath></defs></svg>