<svg version="1.0" xmlns="http://www.w3.org/2000/svg"
 width="682.000000pt" height="225.000000pt" viewBox="0 0 682.000000 225.000000"
 preserveAspectRatio="xMidYMid meet">

<g transform="translate(0.000000,225.000000) scale(0.100000,-0.100000)"
fill="#000000" stroke="none">
<path d="M90 16 c0 -11 10 -16 31 -16 38 0 35 24 -4 28 -19 2 -27 -1 -27 -12z"/>
<path d="M233 23 c15 -2 27 -8 27 -13 0 -5 67 -9 149 -9 118 -1 150 2 154 13
5 11 -25 14 -176 13 -100 0 -170 -2 -154 -4z"/>
<path d="M2166 15 c5 -12 27 -15 109 -15 59 0 107 4 110 10 3 6 11 10 16 10 6
0 7 -5 4 -10 -4 -6 5 -10 19 -10 16 0 26 6 26 14 0 12 -26 15 -145 15 -124 1
-144 -1 -139 -14z"/>
<path d="M2840 19 c0 -5 5 -7 10 -4 6 3 10 8 10 11 0 2 -4 4 -10 4 -5 0 -10
-5 -10 -11z"/>
<path d="M3900 15 c-10 -13 -9 -15 9 -15 12 0 21 6 21 15 0 8 -4 15 -9 15 -5
0 -14 -7 -21 -15z"/>
<path d="M3940 16 c0 -9 7 -16 16 -16 9 0 14 5 12 12 -6 18 -28 21 -28 4z"/>
<path d="M4370 15 c0 -12 12 -15 53 -14 28 1 42 4 30 6 -13 2 -23 9 -23 14 0
5 -13 9 -30 9 -20 0 -30 -5 -30 -15z"/>
<path d="M4580 20 c0 -6 20 -8 54 -4 35 4 56 3 60 -5 10 -16 46 -13 46 4 0 12
-16 15 -80 15 -47 0 -80 -4 -80 -10z"/>
<path d="M4836 15 c9 -22 166 -22 184 0 11 13 0 15 -88 15 -86 0 -100 -2 -96
-15z"/>
<path d="M5372 18 c2 -6 10 -14 16 -16 7 -2 10 2 6 12 -7 18 -28 22 -22 4z"/>
<path d="M1805 10 c-15 -6 -9 -9 25 -9 34 0 40 3 25 9 -11 5 -22 9 -25 9 -3 0
-14 -4 -25 -9z"/>
<path d="M3220 9 c0 -5 5 -7 10 -4 6 3 10 8 10 11 0 2 -4 4 -10 4 -5 0 -10 -5
-10 -11z"/>
<path d="M598 3 c7 -3 16 -2 19 1 4 3 -2 6 -13 5 -11 0 -14 -3 -6 -6z"/>
<path d="M1363 3 c9 -2 23 -2 30 0 6 3 -1 5 -18 5 -16 0 -22 -2 -12 -5z"/>
<path d="M1988 3 c7 -3 16 -2 19 1 4 3 -2 6 -13 5 -11 0 -14 -3 -6 -6z"/>
<path d="M3568 3 c7 -3 16 -2 19 1 4 3 -2 6 -13 5 -11 0 -14 -3 -6 -6z"/>
<path d="M6328 3 c7 -3 16 -2 19 1 4 3 -2 6 -13 5 -11 0 -14 -3 -6 -6z"/>
</g>
</svg>
