<svg xmlns="http://www.w3.org/2000/svg" width="217" height="28" viewBox="0 0 217 28" fill="none"><path d="M106.599 11.2562H93.0309V0.842591H88.9259V27.287H93.0309V14.7562H106.599V27.287H110.66V0.842591H106.599V11.2562ZM66.5648 0.756173C65.0741 0.712963 62.0494 0.71296 59.3704 0.71296V27.2654H63.5185V17.1975C64.5556 17.1975 66.6944 17.1111 68.4228 17.0679C70.8426 17.0247 77.1512 15.8148 77.108 8.53395C77.1728 0.324074 68.0772 0.756173 66.5648 0.756173V0.756173ZM66.3488 13.6759H63.6049V4.10494H65.9383C67.0185 4.10494 73.392 3.62963 73.5864 8.57716C73.8457 13.4383 68.8117 13.6759 66.3488 13.6759ZM28.2809 0.71296L28.3241 27.2654H44.9815V23.8086H32.4722V14.7994H41.3302C41.3302 14.0432 41.287 12.9414 41.3302 11.4938H32.4722V4.25617H44.9815C44.9383 2.16049 44.9815 0.71296 44.9815 0.71296H28.2809V0.71296ZM4.06173 7.19444C4.06173 2.85185 9.80864 2.67901 13.2006 5.46605C14.3673 2.11728 14.4537 1.87963 14.4537 1.87963C4.55864 -2.87346 0.0432099 3.41358 0.0432099 7.4321C0.0432099 17.0463 13.6759 14.9938 11.7099 21.7562C11.0185 24.2191 6.63272 25.6234 1.57716 22.5555C1.20988 23.5926 0.604938 24.8457 0 26.0988C6.67593 29.5988 15.3395 27.9136 15.6204 20.6975C16.0093 11.6235 4.06173 12.2716 4.06173 7.19444V7.19444ZM179.148 8.16666C178.543 0.280862 170.895 0.885798 169.21 0.799379C167.806 0.756169 164.824 0.71296 162.253 0.71296V27.2222H166.401V16.0741C167.806 16.0741 168.259 16.0741 170.377 15.9877L177.938 27.2222H182.972L174.611 15.2963C176.858 14.4753 179.472 12.5525 179.148 8.16666ZM168.972 12.963C168.043 12.963 167.33 12.963 166.401 12.9197V3.9537H168.583C169.62 3.9537 175.065 3.62963 175.54 7.97222C176.123 13.1142 170.096 12.963 168.972 12.963V12.963ZM206.522 0.756173H201.725L193.04 27.3086H197.145C198.441 22.5123 198.873 21.1512 198.873 21.1512L209.611 21.108C210.864 24.6512 211.793 27.3518 211.793 27.3518H216.049L206.522 0.756173V0.756173ZM199.824 18.1049L204.015 4.99073H204.059L208.444 18.0617L199.824 18.1049ZM136.414 0C127.966 0 122.457 6.24382 122.457 14C122.457 21.7562 127.966 28 136.414 28C144.861 28 150.37 21.7562 150.37 14C150.37 6.24382 144.861 0 136.414 0V0ZM136.414 24.1759C130.213 24.1759 126.713 19.6605 126.713 14C126.713 8.40432 130.213 3.82407 136.414 3.82407C142.571 3.82407 146.114 8.3395 146.114 14C146.114 19.5957 142.614 24.1759 136.414 24.1759Z" fill="black"></path></svg>